<svg xmlns="http://www.w3.org/2000/svg" xmlns:xlink="http://www.w3.org/1999/xlink" width="500" zoomAndPan="magnify" viewBox="0 0 375 374.999991" height="500" preserveAspectRatio="xMidYMid meet" version="1.0"><defs><g/><clipPath id="771032c598"><path d="M 129 90.0625 L 245 90.0625 L 245 227.3125 L 129 227.3125 Z M 129 90.0625 " clip-rule="nonzero"/></clipPath><clipPath id="3d92b6868f"><rect x="0" width="139" y="0" height="16"/></clipPath></defs><g clip-path="url(#771032c598)"><path fill="#fdc648" d="M 187.355469 90.273438 C 185.921875 90.273438 184.488281 90.328125 183.058594 90.4375 C 181.628906 90.546875 180.207031 90.707031 178.789062 90.921875 C 177.371094 91.136719 175.964844 91.40625 174.566406 91.726562 C 173.167969 92.042969 171.785156 92.417969 170.414062 92.839844 C 169.046875 93.265625 167.691406 93.738281 166.359375 94.261719 C 165.023438 94.789062 163.710938 95.363281 162.421875 95.984375 C 161.128906 96.609375 159.863281 97.277344 158.621094 97.996094 C 157.378906 98.714844 156.167969 99.476562 154.984375 100.285156 C 153.800781 101.09375 152.648438 101.945312 151.527344 102.839844 C 150.40625 103.734375 149.320312 104.671875 148.269531 105.648438 C 147.21875 106.621094 146.207031 107.636719 145.234375 108.6875 C 144.257812 109.742188 143.324219 110.828125 142.433594 111.949219 C 141.539062 113.070312 140.6875 114.222656 139.882812 115.410156 C 139.074219 116.59375 138.3125 117.808594 137.597656 119.050781 C 136.878906 120.292969 136.210938 121.558594 135.589844 122.851562 C 134.96875 124.144531 134.398438 125.457031 133.875 126.792969 C 133.351562 128.128906 132.878906 129.480469 132.457031 130.851562 C 132.035156 132.21875 131.664062 133.605469 131.347656 135.003906 C 131.027344 136.402344 130.761719 137.808594 130.550781 139.226562 C 130.335938 140.644531 130.179688 142.070312 130.070312 143.5 C 129.964844 144.929688 129.914062 146.359375 129.914062 147.792969 C 129.914062 149.226562 129.96875 150.660156 130.074219 152.089844 C 130.183594 153.519531 130.34375 154.941406 130.558594 156.359375 C 130.773438 157.777344 131.042969 159.1875 131.359375 160.582031 C 131.679688 161.980469 132.050781 163.363281 132.476562 164.734375 C 132.898438 166.105469 133.371094 167.457031 133.898438 168.792969 C 134.421875 170.125 134.996094 171.4375 135.617188 172.730469 C 136.242188 174.023438 136.910156 175.289062 137.628906 176.53125 C 138.34375 177.769531 139.109375 178.984375 139.917969 180.167969 C 140.726562 181.351562 141.574219 182.503906 142.46875 183.625 C 143.363281 184.746094 144.300781 185.832031 145.277344 186.882812 C 146.25 187.933594 147.265625 188.945312 148.316406 189.921875 L 185.390625 227.019531 C 185.945312 227.527344 186.597656 227.789062 187.347656 227.804688 C 188.140625 227.789062 188.839844 227.527344 189.449219 227.019531 L 225.9375 190.382812 C 227.007812 189.417969 228.042969 188.414062 229.039062 187.371094 C 230.035156 186.324219 230.992188 185.246094 231.90625 184.128906 C 232.820312 183.015625 233.691406 181.867188 234.519531 180.683594 C 235.347656 179.503906 236.132812 178.292969 236.867188 177.050781 C 237.605469 175.808594 238.296875 174.542969 238.9375 173.25 C 239.578125 171.957031 240.171875 170.644531 240.714844 169.308594 C 241.253906 167.96875 241.746094 166.613281 242.1875 165.238281 C 242.628906 163.867188 243.015625 162.476562 243.351562 161.074219 C 243.6875 159.671875 243.96875 158.257812 244.199219 156.832031 C 244.425781 155.40625 244.601562 153.976562 244.722656 152.539062 C 244.84375 151.101562 244.914062 149.660156 244.925781 148.21875 C 244.9375 146.773438 244.894531 145.332031 244.800781 143.894531 C 244.703125 142.453125 244.554688 141.019531 244.351562 139.589844 C 244.144531 138.164062 243.886719 136.742188 243.578125 135.335938 C 243.265625 133.925781 242.902344 132.53125 242.488281 131.148438 C 242.070312 129.765625 241.601562 128.402344 241.085938 127.054688 C 240.566406 125.710938 239.996094 124.386719 239.378906 123.082031 C 238.757812 121.777344 238.09375 120.5 237.378906 119.246094 C 236.664062 117.992188 235.902344 116.769531 235.09375 115.570312 C 234.285156 114.375 233.433594 113.210938 232.539062 112.082031 C 231.644531 110.949219 230.707031 109.851562 229.730469 108.792969 C 228.753906 107.730469 227.738281 106.707031 226.679688 105.722656 C 225.625 104.738281 224.535156 103.792969 223.410156 102.890625 C 222.285156 101.988281 221.125 101.132812 219.933594 100.316406 C 218.746094 99.5 217.523438 98.730469 216.277344 98.007812 C 215.027344 97.285156 213.753906 96.609375 212.453125 95.984375 C 211.15625 95.355469 209.832031 94.777344 208.492188 94.25 C 207.148438 93.722656 205.785156 93.246094 204.40625 92.820312 C 203.027344 92.394531 201.636719 92.023438 200.230469 91.703125 C 198.820312 91.382812 197.40625 91.117188 195.976562 90.902344 C 194.550781 90.691406 193.117188 90.53125 191.679688 90.425781 C 190.238281 90.320312 188.796875 90.269531 187.355469 90.273438 Z M 174.179688 183.464844 C 173.6875 183.460938 173.203125 183.40625 172.722656 183.304688 C 172.238281 183.199219 171.773438 183.054688 171.320312 182.859375 C 170.871094 182.664062 170.441406 182.429688 170.035156 182.152344 C 169.628906 181.875 169.257812 181.558594 168.914062 181.207031 C 168.570312 180.855469 168.261719 180.472656 167.992188 180.0625 C 167.726562 179.652344 167.5 179.21875 167.316406 178.761719 C 167.132812 178.304688 166.996094 177.835938 166.902344 177.351562 C 166.8125 176.871094 166.769531 176.382812 166.773438 175.890625 C 166.777344 175.398438 166.832031 174.914062 166.929688 174.429688 C 167.03125 173.949219 167.175781 173.484375 167.367188 173.03125 C 167.5625 172.578125 167.792969 172.148438 168.070312 171.742188 C 168.347656 171.335938 168.660156 170.960938 169.011719 170.613281 C 169.359375 170.269531 169.742188 169.960938 170.152344 169.691406 C 170.5625 169.421875 170.996094 169.191406 171.449219 169.007812 C 171.90625 168.820312 172.375 168.683594 172.855469 168.589844 C 173.339844 168.496094 173.828125 168.449219 174.320312 168.453125 C 174.808594 168.457031 175.296875 168.503906 175.777344 168.605469 C 176.261719 168.703125 176.726562 168.847656 177.179688 169.035156 C 177.632812 169.226562 178.066406 169.457031 178.472656 169.730469 C 178.878906 170.007812 179.257812 170.316406 179.605469 170.667969 C 179.949219 171.015625 180.261719 171.394531 180.53125 171.804688 C 180.804688 172.214844 181.035156 172.644531 181.222656 173.101562 C 181.410156 173.554688 181.550781 174.023438 181.644531 174.503906 C 181.742188 174.988281 181.789062 175.472656 181.789062 175.964844 C 181.785156 176.460938 181.730469 176.953125 181.632812 177.4375 C 181.53125 177.921875 181.382812 178.394531 181.191406 178.851562 C 180.996094 179.308594 180.761719 179.742188 180.480469 180.152344 C 180.203125 180.5625 179.886719 180.941406 179.535156 181.289062 C 179.179688 181.636719 178.796875 181.949219 178.382812 182.21875 C 177.96875 182.492188 177.53125 182.722656 177.074219 182.910156 C 176.613281 183.097656 176.140625 183.238281 175.652344 183.332031 C 175.167969 183.425781 174.675781 183.46875 174.179688 183.464844 Z M 199.902344 183.464844 C 199.410156 183.46875 198.921875 183.417969 198.4375 183.324219 C 197.953125 183.226562 197.484375 183.085938 197.027344 182.898438 C 196.574219 182.707031 196.140625 182.476562 195.730469 182.203125 C 195.320312 181.929688 194.941406 181.621094 194.589844 181.269531 C 194.242188 180.921875 193.929688 180.542969 193.65625 180.132812 C 193.382812 179.722656 193.152344 179.289062 192.960938 178.835938 C 192.773438 178.378906 192.628906 177.910156 192.535156 177.425781 C 192.4375 176.941406 192.390625 176.453125 192.390625 175.960938 C 192.390625 175.46875 192.4375 174.980469 192.535156 174.496094 C 192.628906 174.011719 192.773438 173.542969 192.960938 173.085938 C 193.148438 172.632812 193.378906 172.199219 193.65625 171.789062 C 193.929688 171.378906 194.238281 171 194.589844 170.652344 C 194.9375 170.300781 195.316406 169.992188 195.726562 169.71875 C 196.136719 169.441406 196.570312 169.210938 197.023438 169.023438 C 197.480469 168.835938 197.949219 168.691406 198.433594 168.597656 C 198.917969 168.5 199.40625 168.453125 199.898438 168.453125 C 200.390625 168.453125 200.878906 168.5 201.363281 168.597656 C 201.847656 168.691406 202.316406 168.835938 202.773438 169.023438 C 203.226562 169.214844 203.660156 169.445312 204.070312 169.71875 C 204.480469 169.992188 204.859375 170.304688 205.207031 170.652344 C 205.554688 171.003906 205.867188 171.382812 206.140625 171.792969 C 206.414062 172.203125 206.644531 172.636719 206.835938 173.089844 C 207.023438 173.546875 207.164062 174.015625 207.261719 174.5 C 207.355469 174.984375 207.40625 175.472656 207.402344 175.964844 C 207.402344 176.457031 207.351562 176.945312 207.253906 177.425781 C 207.15625 177.90625 207.011719 178.375 206.820312 178.828125 C 206.632812 179.28125 206.402344 179.710938 206.128906 180.121094 C 205.855469 180.527344 205.542969 180.90625 205.195312 181.253906 C 204.847656 181.601562 204.472656 181.914062 204.0625 182.1875 C 203.65625 182.460938 203.222656 182.691406 202.769531 182.882812 C 202.316406 183.070312 201.851562 183.214844 201.367188 183.3125 C 200.886719 183.414062 200.402344 183.464844 199.910156 183.464844 Z M 212.332031 138.804688 L 206.472656 160.75 C 206.269531 161.464844 205.957031 162.132812 205.539062 162.75 C 205.117188 163.363281 204.613281 163.898438 204.023438 164.351562 C 203.429688 164.804688 202.78125 165.152344 202.078125 165.398438 C 201.375 165.640625 200.648438 165.765625 199.902344 165.777344 L 174.179688 165.777344 C 173.433594 165.78125 172.710938 165.664062 172.007812 165.425781 C 171.300781 165.1875 170.652344 164.84375 170.0625 164.390625 C 169.472656 163.9375 168.972656 163.398438 168.5625 162.777344 C 168.152344 162.15625 167.855469 161.488281 167.667969 160.765625 L 161.664062 138.804688 C 161.667969 138.757812 161.667969 138.714844 161.664062 138.671875 L 159.039062 128.957031 L 155.03125 128.957031 C 154.660156 128.941406 154.304688 128.855469 153.96875 128.699219 C 153.632812 128.546875 153.335938 128.335938 153.078125 128.066406 C 152.824219 127.796875 152.625 127.492188 152.488281 127.148438 C 152.351562 126.804688 152.28125 126.445312 152.28125 126.074219 C 152.28125 125.703125 152.351562 125.347656 152.488281 125.003906 C 152.625 124.65625 152.824219 124.351562 153.078125 124.082031 C 153.335938 123.816406 153.632812 123.605469 153.96875 123.449219 C 154.304688 123.296875 154.660156 123.210938 155.03125 123.191406 L 161.25 123.191406 C 161.5625 123.179688 161.863281 123.222656 162.160156 123.316406 C 162.453125 123.410156 162.726562 123.550781 162.972656 123.738281 C 163.21875 123.925781 163.425781 124.152344 163.59375 124.410156 C 163.761719 124.671875 163.882812 124.953125 163.953125 125.253906 L 166.613281 135.242188 L 209.566406 135.242188 C 210.007812 135.210938 210.429688 135.296875 210.824219 135.492188 C 211.222656 135.6875 211.542969 135.96875 211.792969 136.335938 C 212.089844 136.671875 212.289062 137.058594 212.386719 137.5 C 212.484375 137.9375 212.464844 138.375 212.335938 138.804688 Z M 212.332031 138.804688 " fill-opacity="1" fill-rule="nonzero"/></g><g fill="#ef8121" fill-opacity="0.4"><g transform="translate(98.104547, 274.467184)"><g><path d="M 31.21875 -7.5625 L 31.21875 0 L 3.453125 0 L 3.453125 -34.578125 L 30.578125 -34.578125 L 30.578125 -27.03125 L 13.140625 -27.03125 L 13.140625 -21.1875 L 28.5 -21.1875 L 28.5 -13.890625 L 13.140625 -13.890625 L 13.140625 -7.5625 Z M 31.21875 -7.5625 "/></g></g></g><g fill="#ef8121" fill-opacity="0.4"><g transform="translate(131.297642, 274.467184)"><g><path d="M 2.375 -17.6875 L 16.796875 -17.6875 L 16.796875 -10.46875 L 2.375 -10.46875 Z M 2.375 -17.6875 "/></g></g></g><g fill="#fdc648" fill-opacity="1"><g transform="translate(98.104547, 274.467184)"><g><path d="M 31.21875 -7.5625 L 31.21875 0 L 3.453125 0 L 3.453125 -34.578125 L 30.578125 -34.578125 L 30.578125 -27.03125 L 13.140625 -27.03125 L 13.140625 -21.1875 L 28.5 -21.1875 L 28.5 -13.890625 L 13.140625 -13.890625 L 13.140625 -7.5625 Z M 31.21875 -7.5625 "/></g></g></g><g fill="#fdc648" fill-opacity="1"><g transform="translate(131.297642, 274.467184)"><g><path d="M 2.375 -17.6875 L 16.796875 -17.6875 L 16.796875 -10.46875 L 2.375 -10.46875 Z M 2.375 -17.6875 "/></g></g></g><g fill="#424141" fill-opacity="1"><g transform="translate(150.465991, 274.467184)"><g><path d="M 15.609375 0.6875 C 12.804688 0.6875 10.085938 0.34375 7.453125 -0.34375 C 4.828125 -1.039062 2.6875 -1.960938 1.03125 -3.109375 L 4.25 -10.328125 C 5.800781 -9.304688 7.597656 -8.484375 9.640625 -7.859375 C 11.679688 -7.234375 13.6875 -6.921875 15.65625 -6.921875 C 19.414062 -6.921875 21.296875 -7.859375 21.296875 -9.734375 C 21.296875 -10.722656 20.757812 -11.453125 19.6875 -11.921875 C 18.613281 -12.398438 16.894531 -12.90625 14.53125 -13.4375 C 11.925781 -14 9.75 -14.597656 8 -15.234375 C 6.257812 -15.878906 4.757812 -16.910156 3.5 -18.328125 C 2.25 -19.742188 1.625 -21.65625 1.625 -24.0625 C 1.625 -26.164062 2.203125 -28.066406 3.359375 -29.765625 C 4.515625 -31.460938 6.234375 -32.804688 8.515625 -33.796875 C 10.804688 -34.785156 13.617188 -35.28125 16.953125 -35.28125 C 19.222656 -35.28125 21.457031 -35.023438 23.65625 -34.515625 C 25.863281 -34.003906 27.8125 -33.253906 29.5 -32.265625 L 26.484375 -25 C 23.191406 -26.78125 19.992188 -27.671875 16.890625 -27.671875 C 14.953125 -27.671875 13.535156 -27.378906 12.640625 -26.796875 C 11.753906 -26.222656 11.3125 -25.476562 11.3125 -24.5625 C 11.3125 -23.632812 11.835938 -22.9375 12.890625 -22.46875 C 13.941406 -22.007812 15.640625 -21.535156 17.984375 -21.046875 C 20.617188 -20.484375 22.800781 -19.878906 24.53125 -19.234375 C 26.257812 -18.597656 27.753906 -17.578125 29.015625 -16.171875 C 30.285156 -14.773438 30.921875 -12.875 30.921875 -10.46875 C 30.921875 -8.394531 30.34375 -6.519531 29.1875 -4.84375 C 28.039062 -3.164062 26.3125 -1.820312 24 -0.8125 C 21.695312 0.1875 18.898438 0.6875 15.609375 0.6875 Z M 15.609375 0.6875 "/></g></g></g><g fill="#424141" fill-opacity="1"><g transform="translate(179.509469, 274.467184)"><g><path d="M 20.453125 -27.21875 C 23.773438 -27.21875 26.445312 -26.226562 28.46875 -24.25 C 30.5 -22.28125 31.515625 -19.300781 31.515625 -15.3125 L 31.515625 0 L 22.140625 0 L 22.140625 -13.78125 C 22.140625 -17.4375 20.671875 -19.265625 17.734375 -19.265625 C 16.117188 -19.265625 14.828125 -18.738281 13.859375 -17.6875 C 12.890625 -16.632812 12.40625 -15.050781 12.40625 -12.9375 L 12.40625 0 L 3.015625 0 L 3.015625 -36.65625 L 12.40625 -36.65625 L 12.40625 -24.3125 C 13.425781 -25.257812 14.625 -25.976562 16 -26.46875 C 17.382812 -26.96875 18.867188 -27.21875 20.453125 -27.21875 Z M 20.453125 -27.21875 "/></g></g></g><g fill="#424141" fill-opacity="1"><g transform="translate(210.973281, 274.467184)"><g><path d="M 16.453125 0.4375 C 13.585938 0.4375 11 -0.148438 8.6875 -1.328125 C 6.382812 -2.515625 4.582031 -4.160156 3.28125 -6.265625 C 1.976562 -8.378906 1.328125 -10.769531 1.328125 -13.4375 C 1.328125 -16.070312 1.976562 -18.441406 3.28125 -20.546875 C 4.582031 -22.660156 6.378906 -24.300781 8.671875 -25.46875 C 10.960938 -26.632812 13.554688 -27.21875 16.453125 -27.21875 C 19.347656 -27.21875 21.945312 -26.632812 24.25 -25.46875 C 26.5625 -24.300781 28.359375 -22.671875 29.640625 -20.578125 C 30.929688 -18.484375 31.578125 -16.101562 31.578125 -13.4375 C 31.578125 -10.769531 30.929688 -8.378906 29.640625 -6.265625 C 28.359375 -4.160156 26.5625 -2.515625 24.25 -1.328125 C 21.945312 -0.148438 19.347656 0.4375 16.453125 0.4375 Z M 16.453125 -7.015625 C 18.097656 -7.015625 19.445312 -7.582031 20.5 -8.71875 C 21.550781 -9.851562 22.078125 -11.425781 22.078125 -13.4375 C 22.078125 -15.414062 21.550781 -16.960938 20.5 -18.078125 C 19.445312 -19.203125 18.097656 -19.765625 16.453125 -19.765625 C 14.804688 -19.765625 13.453125 -19.203125 12.390625 -18.078125 C 11.335938 -16.960938 10.8125 -15.414062 10.8125 -13.4375 C 10.8125 -11.425781 11.335938 -9.851562 12.390625 -8.71875 C 13.453125 -7.582031 14.804688 -7.015625 16.453125 -7.015625 Z M 16.453125 -7.015625 "/></g></g></g><g fill="#424141" fill-opacity="1"><g transform="translate(240.955254, 274.467184)"><g><path d="M 19.859375 -27.21875 C 22.296875 -27.21875 24.507812 -26.648438 26.5 -25.515625 C 28.5 -24.378906 30.082031 -22.765625 31.25 -20.671875 C 32.414062 -18.585938 33 -16.160156 33 -13.390625 C 33 -10.617188 32.414062 -8.1875 31.25 -6.09375 C 30.082031 -4.007812 28.5 -2.398438 26.5 -1.265625 C 24.507812 -0.128906 22.296875 0.4375 19.859375 0.4375 C 16.734375 0.4375 14.25 -0.5 12.40625 -2.375 L 12.40625 9.578125 L 3.015625 9.578125 L 3.015625 -26.78125 L 11.953125 -26.78125 L 11.953125 -24.109375 C 13.703125 -26.179688 16.335938 -27.21875 19.859375 -27.21875 Z M 17.890625 -7.015625 C 19.535156 -7.015625 20.882812 -7.582031 21.9375 -8.71875 C 22.988281 -9.851562 23.515625 -11.410156 23.515625 -13.390625 C 23.515625 -15.367188 22.988281 -16.925781 21.9375 -18.0625 C 20.882812 -19.195312 19.535156 -19.765625 17.890625 -19.765625 C 16.242188 -19.765625 14.890625 -19.195312 13.828125 -18.0625 C 12.773438 -16.925781 12.25 -15.367188 12.25 -13.390625 C 12.25 -11.410156 12.773438 -9.851562 13.828125 -8.71875 C 14.890625 -7.582031 16.242188 -7.015625 17.890625 -7.015625 Z M 17.890625 -7.015625 "/></g></g></g><g transform="matrix(1, 0, 0, 1, 119, 287)"><g clip-path="url(#3d92b6868f)"><g fill="#424141" fill-opacity="1"><g transform="translate(0.7802, 11.824685)"><g><path d="M 4.828125 0.09375 C 4.023438 0.09375 3.296875 -0.0820312 2.640625 -0.4375 C 1.992188 -0.789062 1.484375 -1.28125 1.109375 -1.90625 C 0.734375 -2.539062 0.546875 -3.242188 0.546875 -4.015625 C 0.546875 -4.785156 0.734375 -5.484375 1.109375 -6.109375 C 1.484375 -6.742188 1.992188 -7.238281 2.640625 -7.59375 C 3.296875 -7.945312 4.023438 -8.125 4.828125 -8.125 C 5.640625 -8.125 6.367188 -7.945312 7.015625 -7.59375 C 7.671875 -7.238281 8.179688 -6.75 8.546875 -6.125 C 8.910156 -5.5 9.09375 -4.796875 9.09375 -4.015625 C 9.09375 -3.234375 8.910156 -2.53125 8.546875 -1.90625 C 8.179688 -1.28125 7.671875 -0.789062 7.015625 -0.4375 C 6.367188 -0.0820312 5.640625 0.09375 4.828125 0.09375 Z M 4.828125 -0.9375 C 5.421875 -0.9375 5.953125 -1.066406 6.421875 -1.328125 C 6.890625 -1.597656 7.257812 -1.96875 7.53125 -2.4375 C 7.8125 -2.90625 7.953125 -3.429688 7.953125 -4.015625 C 7.953125 -4.597656 7.8125 -5.125 7.53125 -5.59375 C 7.257812 -6.070312 6.890625 -6.441406 6.421875 -6.703125 C 5.953125 -6.972656 5.421875 -7.109375 4.828125 -7.109375 C 4.242188 -7.109375 3.710938 -6.972656 3.234375 -6.703125 C 2.753906 -6.441406 2.378906 -6.070312 2.109375 -5.59375 C 1.835938 -5.125 1.703125 -4.597656 1.703125 -4.015625 C 1.703125 -3.429688 1.835938 -2.90625 2.109375 -2.4375 C 2.378906 -1.96875 2.753906 -1.597656 3.234375 -1.328125 C 3.710938 -1.066406 4.242188 -0.9375 4.828125 -0.9375 Z M 4.828125 -0.9375 "/></g></g></g><g fill="#424141" fill-opacity="1"><g transform="translate(11.963776, 11.824685)"><g><path d="M 8.125 -8.046875 L 8.125 0 L 7.171875 0 L 2.359375 -6 L 2.359375 0 L 1.203125 0 L 1.203125 -8.046875 L 2.140625 -8.046875 L 6.96875 -2.046875 L 6.96875 -8.046875 Z M 8.125 -8.046875 "/></g></g></g><g fill="#424141" fill-opacity="1"><g transform="translate(22.825873, 11.824685)"><g><path d="M 1.203125 -8.046875 L 2.359375 -8.046875 L 2.359375 -1 L 6.703125 -1 L 6.703125 0 L 1.203125 0 Z M 1.203125 -8.046875 "/></g></g></g><g fill="#424141" fill-opacity="1"><g transform="translate(31.18509, 11.824685)"><g><path d="M 1.203125 -8.046875 L 2.359375 -8.046875 L 2.359375 0 L 1.203125 0 Z M 1.203125 -8.046875 "/></g></g></g><g fill="#424141" fill-opacity="1"><g transform="translate(36.283671, 11.824685)"><g><path d="M 8.125 -8.046875 L 8.125 0 L 7.171875 0 L 2.359375 -6 L 2.359375 0 L 1.203125 0 L 1.203125 -8.046875 L 2.140625 -8.046875 L 6.96875 -2.046875 L 6.96875 -8.046875 Z M 8.125 -8.046875 "/></g></g></g><g fill="#424141" fill-opacity="1"><g transform="translate(47.145768, 11.824685)"><g><path d="M 7.046875 -1 L 7.046875 0 L 1.203125 0 L 1.203125 -8.046875 L 6.875 -8.046875 L 6.875 -7.046875 L 2.359375 -7.046875 L 2.359375 -4.578125 L 6.390625 -4.578125 L 6.390625 -3.59375 L 2.359375 -3.59375 L 2.359375 -1 Z M 7.046875 -1 "/></g></g></g><g fill="#424141" fill-opacity="1"><g transform="translate(56.377548, 11.824685)"><g/></g></g><g fill="#424141" fill-opacity="1"><g transform="translate(61.005398, 11.824685)"><g><path d="M 3.546875 0.09375 C 2.941406 0.09375 2.359375 0 1.796875 -0.1875 C 1.234375 -0.375 0.789062 -0.617188 0.46875 -0.921875 L 0.890625 -1.8125 C 1.203125 -1.539062 1.597656 -1.316406 2.078125 -1.140625 C 2.554688 -0.972656 3.046875 -0.890625 3.546875 -0.890625 C 4.210938 -0.890625 4.707031 -1 5.03125 -1.21875 C 5.363281 -1.445312 5.53125 -1.75 5.53125 -2.125 C 5.53125 -2.394531 5.441406 -2.617188 5.265625 -2.796875 C 5.085938 -2.972656 4.863281 -3.101562 4.59375 -3.1875 C 4.332031 -3.28125 3.960938 -3.382812 3.484375 -3.5 C 2.878906 -3.644531 2.390625 -3.789062 2.015625 -3.9375 C 1.640625 -4.082031 1.320312 -4.304688 1.0625 -4.609375 C 0.800781 -4.910156 0.671875 -5.316406 0.671875 -5.828125 C 0.671875 -6.265625 0.78125 -6.65625 1 -7 C 1.226562 -7.34375 1.570312 -7.613281 2.03125 -7.8125 C 2.488281 -8.019531 3.0625 -8.125 3.75 -8.125 C 4.21875 -8.125 4.679688 -8.0625 5.140625 -7.9375 C 5.597656 -7.820312 5.992188 -7.648438 6.328125 -7.421875 L 5.953125 -6.5 C 5.609375 -6.71875 5.242188 -6.878906 4.859375 -6.984375 C 4.484375 -7.097656 4.113281 -7.15625 3.75 -7.15625 C 3.09375 -7.15625 2.601562 -7.035156 2.28125 -6.796875 C 1.957031 -6.554688 1.796875 -6.25 1.796875 -5.875 C 1.796875 -5.601562 1.882812 -5.378906 2.0625 -5.203125 C 2.25 -5.035156 2.476562 -4.898438 2.75 -4.796875 C 3.019531 -4.703125 3.390625 -4.601562 3.859375 -4.5 C 4.460938 -4.351562 4.945312 -4.207031 5.3125 -4.0625 C 5.6875 -3.914062 6.003906 -3.691406 6.265625 -3.390625 C 6.523438 -3.097656 6.65625 -2.695312 6.65625 -2.1875 C 6.65625 -1.769531 6.539062 -1.382812 6.3125 -1.03125 C 6.082031 -0.6875 5.734375 -0.410156 5.265625 -0.203125 C 4.804688 -0.00390625 4.234375 0.09375 3.546875 0.09375 Z M 3.546875 0.09375 "/></g></g></g><g fill="#424141" fill-opacity="1"><g transform="translate(69.674602, 11.824685)"><g><path d="M 8.125 -8.046875 L 8.125 0 L 6.96875 0 L 6.96875 -3.578125 L 2.359375 -3.578125 L 2.359375 0 L 1.203125 0 L 1.203125 -8.046875 L 2.359375 -8.046875 L 2.359375 -4.578125 L 6.96875 -4.578125 L 6.96875 -8.046875 Z M 8.125 -8.046875 "/></g></g></g><g fill="#424141" fill-opacity="1"><g transform="translate(80.5367, 11.824685)"><g><path d="M 4.828125 0.09375 C 4.023438 0.09375 3.296875 -0.0820312 2.640625 -0.4375 C 1.992188 -0.789062 1.484375 -1.28125 1.109375 -1.90625 C 0.734375 -2.539062 0.546875 -3.242188 0.546875 -4.015625 C 0.546875 -4.785156 0.734375 -5.484375 1.109375 -6.109375 C 1.484375 -6.742188 1.992188 -7.238281 2.640625 -7.59375 C 3.296875 -7.945312 4.023438 -8.125 4.828125 -8.125 C 5.640625 -8.125 6.367188 -7.945312 7.015625 -7.59375 C 7.671875 -7.238281 8.179688 -6.75 8.546875 -6.125 C 8.910156 -5.5 9.09375 -4.796875 9.09375 -4.015625 C 9.09375 -3.234375 8.910156 -2.53125 8.546875 -1.90625 C 8.179688 -1.28125 7.671875 -0.789062 7.015625 -0.4375 C 6.367188 -0.0820312 5.640625 0.09375 4.828125 0.09375 Z M 4.828125 -0.9375 C 5.421875 -0.9375 5.953125 -1.066406 6.421875 -1.328125 C 6.890625 -1.597656 7.257812 -1.96875 7.53125 -2.4375 C 7.8125 -2.90625 7.953125 -3.429688 7.953125 -4.015625 C 7.953125 -4.597656 7.8125 -5.125 7.53125 -5.59375 C 7.257812 -6.070312 6.890625 -6.441406 6.421875 -6.703125 C 5.953125 -6.972656 5.421875 -7.109375 4.828125 -7.109375 C 4.242188 -7.109375 3.710938 -6.972656 3.234375 -6.703125 C 2.753906 -6.441406 2.378906 -6.070312 2.109375 -5.59375 C 1.835938 -5.125 1.703125 -4.597656 1.703125 -4.015625 C 1.703125 -3.429688 1.835938 -2.90625 2.109375 -2.4375 C 2.378906 -1.96875 2.753906 -1.597656 3.234375 -1.328125 C 3.710938 -1.066406 4.242188 -0.9375 4.828125 -0.9375 Z M 4.828125 -0.9375 "/></g></g></g><g fill="#424141" fill-opacity="1"><g transform="translate(91.720275, 11.824685)"><g><path d="M 4.34375 -8.046875 C 5.382812 -8.046875 6.203125 -7.796875 6.796875 -7.296875 C 7.390625 -6.796875 7.6875 -6.109375 7.6875 -5.234375 C 7.6875 -4.359375 7.390625 -3.671875 6.796875 -3.171875 C 6.203125 -2.679688 5.382812 -2.4375 4.34375 -2.4375 L 2.359375 -2.4375 L 2.359375 0 L 1.203125 0 L 1.203125 -8.046875 Z M 4.3125 -3.4375 C 5.03125 -3.4375 5.582031 -3.585938 5.96875 -3.890625 C 6.351562 -4.203125 6.546875 -4.648438 6.546875 -5.234375 C 6.546875 -5.816406 6.351562 -6.265625 5.96875 -6.578125 C 5.582031 -6.890625 5.03125 -7.046875 4.3125 -7.046875 L 2.359375 -7.046875 L 2.359375 -3.4375 Z M 4.3125 -3.4375 "/></g></g></g><g fill="#424141" fill-opacity="1"><g transform="translate(101.549076, 11.824685)"><g><path d="M 4.34375 -8.046875 C 5.382812 -8.046875 6.203125 -7.796875 6.796875 -7.296875 C 7.390625 -6.796875 7.6875 -6.109375 7.6875 -5.234375 C 7.6875 -4.359375 7.390625 -3.671875 6.796875 -3.171875 C 6.203125 -2.679688 5.382812 -2.4375 4.34375 -2.4375 L 2.359375 -2.4375 L 2.359375 0 L 1.203125 0 L 1.203125 -8.046875 Z M 4.3125 -3.4375 C 5.03125 -3.4375 5.582031 -3.585938 5.96875 -3.890625 C 6.351562 -4.203125 6.546875 -4.648438 6.546875 -5.234375 C 6.546875 -5.816406 6.351562 -6.265625 5.96875 -6.578125 C 5.582031 -6.890625 5.03125 -7.046875 4.3125 -7.046875 L 2.359375 -7.046875 L 2.359375 -3.4375 Z M 4.3125 -3.4375 "/></g></g></g><g fill="#424141" fill-opacity="1"><g transform="translate(111.377876, 11.824685)"><g><path d="M 1.203125 -8.046875 L 2.359375 -8.046875 L 2.359375 0 L 1.203125 0 Z M 1.203125 -8.046875 "/></g></g></g><g fill="#424141" fill-opacity="1"><g transform="translate(116.476457, 11.824685)"><g><path d="M 8.125 -8.046875 L 8.125 0 L 7.171875 0 L 2.359375 -6 L 2.359375 0 L 1.203125 0 L 1.203125 -8.046875 L 2.140625 -8.046875 L 6.96875 -2.046875 L 6.96875 -8.046875 Z M 8.125 -8.046875 "/></g></g></g><g fill="#424141" fill-opacity="1"><g transform="translate(127.338554, 11.824685)"><g><path d="M 6.78125 -4.0625 L 7.875 -4.0625 L 7.875 -0.9375 C 7.476562 -0.601562 7.015625 -0.347656 6.484375 -0.171875 C 5.960938 0.00390625 5.410156 0.09375 4.828125 0.09375 C 4.023438 0.09375 3.296875 -0.0820312 2.640625 -0.4375 C 1.992188 -0.789062 1.484375 -1.28125 1.109375 -1.90625 C 0.734375 -2.53125 0.546875 -3.234375 0.546875 -4.015625 C 0.546875 -4.796875 0.734375 -5.5 1.109375 -6.125 C 1.484375 -6.757812 1.992188 -7.25 2.640625 -7.59375 C 3.296875 -7.945312 4.035156 -8.125 4.859375 -8.125 C 5.503906 -8.125 6.085938 -8.019531 6.609375 -7.8125 C 7.128906 -7.601562 7.578125 -7.296875 7.953125 -6.890625 L 7.234375 -6.171875 C 6.585938 -6.796875 5.8125 -7.109375 4.90625 -7.109375 C 4.289062 -7.109375 3.738281 -6.972656 3.25 -6.703125 C 2.769531 -6.441406 2.390625 -6.078125 2.109375 -5.609375 C 1.835938 -5.140625 1.703125 -4.609375 1.703125 -4.015625 C 1.703125 -3.429688 1.835938 -2.90625 2.109375 -2.4375 C 2.390625 -1.96875 2.769531 -1.597656 3.25 -1.328125 C 3.738281 -1.066406 4.285156 -0.9375 4.890625 -0.9375 C 5.609375 -0.9375 6.238281 -1.109375 6.78125 -1.453125 Z M 6.78125 -4.0625 "/></g></g></g></g></g></svg>